<svg width="237" height="30" viewBox="0 0 237 30" fill="none" xmlns="http://www.w3.org/2000/svg">
<g clip-path="url(#clip0_318_20)">
<path d="M82.1347 26.7173H75.3417V29.8303H82.1347V26.7173Z" fill="#54307D"/>
<path d="M82.1347 21.8491H75.3417V26.6601H82.1347V21.8491Z" fill="#991CA1"/>
<path d="M82.1347 13.9814H75.3417V21.9065H82.1347V13.9814Z" fill="#F03345"/>
<path d="M82.1347 0.905273H75.3417V13.9243H82.1347V0.905273Z" fill="#FFA30D"/>
<path d="M61.6428 10.8107C61.6428 7.58431 59.2093 6.6219 55.5865 6.6219H43.2469V14.9995H55.5865C59.2654 14.9995 61.6428 14.0371 61.6428 10.8107ZM68.209 10.7545C68.209 16.9815 63.3981 20.3203 56.0952 20.3203H43.2469V29.4345H36.793V1.18872H56.0952C63.3981 1.18872 68.209 4.58472 68.209 10.7545Z" fill="#58595B"/>
<path d="M192.4 18.2262L186.57 6.73555L180.683 18.2262H192.4ZM195.117 23.4908H178.079L175.079 29.4348H168.173L183.117 1.18896H190.193L205.079 29.4348H198.117L195.117 23.4908Z" fill="#58595B"/>
<path d="M236.891 23.8869V29.4345H210.457V1.18872H216.966V23.8307H236.891V23.8869Z" fill="#58595B"/>
<path d="M156.229 19.4151C160.928 18.3393 164.097 15.3397 164.097 10.5277C164.097 4.41512 158.89 1.18872 151.984 1.18872H132.512V29.4345H138.908L138.852 6.62293H151.588C154.984 6.62293 157.475 7.41471 157.475 10.5849C157.475 13.7551 154.984 14.5469 151.588 14.5469H142.475L140.946 19.8677H149.041L157.135 29.4907H164.834L156.229 19.4151Z" fill="#58595B"/>
<path d="M6.39661 24.0568V6.62219H28.6422V1.18799H0V29.4338H29.0386V24.0568H6.39661Z" fill="#58595B"/>
<path d="M25.0196 17.8302V12.396H9.9624L8.49121 17.8302H25.0196Z" fill="#58595B"/>
<path d="M109.021 13.1886L107.549 18.4532H117.909V21.1698C115.87 23.6034 112.417 24.5096 108.172 24.5096C100.7 24.5096 96.2289 21.2832 96.2289 15C96.2289 8.7168 100.53 5.4904 107.945 5.4904C112.248 5.4904 115.078 6.6224 117.568 9.05599L122.606 5.37699C119.776 2.6604 114.852 0 107.945 0C96.6243 0 89.7189 5.54659 89.7189 15C89.7189 24.4534 96.6243 30 107.945 30C115.587 30 121.191 27.2262 124.021 23.3776V13.1886H109.021Z" fill="#58595B"/>
</g>
<defs>
<clipPath id="clip0_318_20">
<rect width="236.891" height="30" fill="#58595B"/>
</clipPath>
</defs>
</svg>
